<?xml version="1.0" encoding="UTF-8" standalone="no"?>
<!-- Created with Inkscape (http://www.inkscape.org/) -->

<svg
   width="210mm"
   height="297mm"
   viewBox="0 0 210 297"
   version="1.1"
   id="svg1"
   inkscape:version="1.4 (e7c3feb100, 2024-10-09)"
   sodipodi:docname="drawing.svg"
   xmlns:inkscape="http://www.inkscape.org/namespaces/inkscape"
   xmlns:sodipodi="http://sodipodi.sourceforge.net/DTD/sodipodi-0.dtd"
   xmlns="http://www.w3.org/2000/svg"
   xmlns:svg="http://www.w3.org/2000/svg">
  <sodipodi:namedview
     id="namedview1"
     pagecolor="#ffffff"
     bordercolor="#000000"
     borderopacity="0.25"
     inkscape:showpageshadow="2"
     inkscape:pageopacity="0.0"
     inkscape:pagecheckerboard="0"
     inkscape:deskcolor="#d1d1d1"
     inkscape:document-units="mm"
     inkscape:zoom="0.50132766"
     inkscape:cx="404.92479"
     inkscape:cy="443.82151"
     inkscape:window-width="1375"
     inkscape:window-height="991"
     inkscape:window-x="26"
     inkscape:window-y="23"
     inkscape:window-maximized="0"
     inkscape:current-layer="layer1" />
  <defs
     id="defs1" />
  <g
     inkscape:label="Layer 1"
     inkscape:groupmode="layer"
     id="layer1">
    <path
       style="fill:#000000;stroke-width:0.264583"
       d="m 46.971108,196.85645 c -1.700371,-1.70038 -0.613751,-3.25258 -1.055529,-3.69436 -0.24879,-0.24879 -0.806741,0.24879 -1.055531,0 -0.24879,-0.24879 0.15735,-0.74083 0,-1.05553 -0.146865,-0.29373 -1.964195,-2.87286 -2.11106,-3.16659 -0.351846,-0.70369 0.351843,-1.93514 0,-2.63883 -0.222525,-0.44505 -0.779523,-0.64152 -1.055531,-1.05553 -0.497618,-0.74643 0.407566,-2.35146 0,-3.16659 -0.222526,-0.44505 -0.870734,-0.59354 -1.055532,-1.05553 -0.297476,-0.7437 0.376029,-2.41454 0,-3.16659 -0.222525,-0.44505 -0.870733,-0.59354 -1.055529,-1.05553 -0.297479,-0.7437 0.376026,-2.41454 0,-3.16659 -1.304321,-2.60865 -1.055531,0.36434 -1.055531,-2.11107 0,-0.43463 0.279405,-2.88718 0,-3.16659 -0.24879,-0.24879 -0.806738,0.24879 -1.055531,0 -0.487934,-0.48793 0.318651,-2.52929 0,-3.16659 -0.222526,-0.44505 -0.833004,-0.61048 -1.055529,-1.05553 -0.15735,-0.3147 0.24879,-0.80674 0,-1.05553 -0.248793,-0.24879 -0.806741,0.24879 -1.055531,0 -0.248791,-0.24879 0.157347,-0.74083 0,-1.05553 -0.222526,-0.44505 -0.833007,-0.61048 -1.055532,-1.05553 -0.313558,-0.62712 0.416391,-2.08364 0,-2.63883 -0.447823,-0.5971 -1.249508,-0.91572 -1.583296,-1.58329 -1.301578,-2.60313 0.946603,-0.74563 0,-2.63883 -0.222525,-0.44505 -0.833003,-0.61048 -1.055528,-1.05553 -0.455597,-0.91119 -0.253185,-4.98167 -0.527767,-5.80542 -0.124394,-0.37318 -0.837327,-0.20046 -1.055532,-0.52776 -0.654034,-0.98106 0.532517,-3.1571 0,-4.22213 -0.70168,-1.40336 -1.454033,-1.52402 -2.11106,-3.16659 -0.261342,-0.65336 0.261342,-1.4577 0,-2.11106 -0.235572,-0.58893 -0.854948,-0.98155 -1.055531,-1.58329 -0.166894,-0.50069 0.166896,-1.08262 0,-1.5833 -0.200581,-0.60174 -0.819958,-0.99437 -1.05553,-1.5833 -0.130671,-0.32667 0.15735,-0.74083 0,-1.05553 -0.222525,-0.44505 -0.833005,-0.61048 -1.05553,-1.05553 -0.314699,-0.62939 0.170669,-1.42838 0,-2.11106 -0.527186,-2.10906 -0.531816,-0.008 -1.583296,-2.11106 -1.56057,-3.12114 1.90212,1.12878 -0.527765,-2.11106 -1.424535,-1.89938 -3.677188,-3.66002 -4.749888,-5.80542 -0.157349,-0.3147 0.211106,-0.77405 0,-1.05553 -0.380577,-0.50744 -1.202719,-0.54809 -1.583296,-1.05553 -0.211106,-0.28147 0.15735,-0.74083 0,-1.05553 -0.44505,-0.8901 -1.513962,-1.31493 -2.111061,-2.11106 -0.833558,-1.11141 -2.131511,-2.95384 -2.638826,-4.22212 -1.043011,-2.60753 0.882331,-4.56853 -1.055531,-8.44425 -0.314698,-0.629394 0.703688,2.11106 0,2.11106 -0.7036865,0 0,-1.40737 0,-2.11106 1.231453,-1.407373 2.310615,-2.964172 3.694358,-4.222119 0.853672,-0.776065 9.621747,-5.64761 10.02754,-5.805418 1.511635,-0.587858 3.171084,-0.684048 4.749887,-1.055531 4.471142,-1.052033 8.572448,-2.858479 13.194132,-3.166591 2.064489,-0.137633 4.245811,0 6.333184,0 5.161012,0 4.333308,4.055588 6.333183,7.388714 0.256004,0.426672 0.833005,0.610479 1.055531,1.05553 0.313524,0.627048 0.313524,4.650605 0,5.277653 -2.402538,2.402542 -0.278975,-0.218608 -1.055531,2.111062 -0.907246,2.72174 -8.756742,7.63871 -11.083071,9.49977 -0.777092,0.62168 -1.66601,1.22096 -2.111061,2.11107 -0.157349,0.31469 0.248791,0.80673 0,1.05553 -0.596279,0.59628 -1.738079,-0.61914 -1.05553,2.11106 1.056198,4.22479 10.348038,7.50194 12.138601,11.08307 0.157349,0.3147 -0.157349,0.74083 0,1.05553 0.222525,0.44505 0.756981,0.65746 1.055531,1.05553 1.068032,1.42404 -0.0088,0.86487 1.05553,2.63883 0.901269,1.50211 1.174862,0.47732 1.583296,2.11106 0.08534,0.34133 -0.157349,0.74083 0,1.05553 0.222525,0.44505 0.870733,0.59353 1.055531,1.05553 0.67922,1.69805 -0.131708,4.15673 0.527765,5.80542 0.235571,0.58892 0.819959,0.99436 1.05553,1.58329 0.262151,0.65538 0.228244,8.4014 0,8.97201 -0.235571,0.58893 -0.819959,0.99437 -1.05553,1.5833 -0.325867,0.81466 -0.615026,4.39664 -1.055531,5.27765 -0.146865,0.29373 -1.964196,2.87286 -2.111061,3.16659 -0.157349,0.3147 0.157349,0.74083 0,1.05553 -0.222525,0.44505 -0.833005,0.61048 -1.05553,1.05553 -1.538229,3.07646 2.129854,-1.62088 0,2.63883 -0.175922,0.35184 -0.837327,0.20046 -1.055531,0.52776 -0.575699,0.86355 0.218774,9.89899 -0.527765,12.13861 -0.0067,0.0201 -2.059553,3.06357 -2.111061,3.16659 -0.314699,0.62939 0.390335,1.52556 0,2.11106 -0.218205,0.3273 -0.777374,0.24961 -1.055531,0.52776 -0.5876,0.5876 0.385007,2.92435 0,3.69436 -0.222525,0.44505 -0.833005,0.61048 -1.055531,1.05553 -0.157349,0.3147 0.15735,0.74083 0,1.05553 -1.9263,3.8526 -1.055527,-4.2094 -1.055532,4.74989 z"
       id="path2" />
    <path
       style="fill:#000000;stroke-width:0.264583"
       d="m 57.526414,155.16299 c 0.351846,-0.87961 0.795269,-1.72791 1.055531,-2.63883 0.507985,-1.77794 0,-5.92548 0,-7.38871 0,-5.98134 0,-11.96268 0,-17.94402 0,-2.4629 -0.245067,-4.93803 0,-7.38871 0.11071,-1.10711 0.856499,-2.07191 1.055532,-3.16659 0.274087,-1.50749 -0.591876,-4.32573 0,-5.80542 0.184795,-0.462 0.779521,-0.64152 1.055529,-1.05553 0.425098,-0.63765 0.157509,-5.22242 0.527767,-6.33319 1.744522,-5.233566 0.196228,0.76119 2.11106,-2.11106 0.195167,-0.29275 -0.08533,-0.71419 0,-1.05553 0.09541,-0.381625 0.381669,-0.690291 0.527764,-1.055529 0.617551,-1.543871 0.928415,-3.221826 1.583296,-4.749888 0.927687,-2.164604 2.244103,-4.492596 2.638827,-6.860947 0.09353,-0.561179 0.3624,-4.946922 0.527764,-5.277654 0.222528,-0.445051 0.833007,-0.610479 1.055532,-1.055529 0.15735,-0.314698 -0.248791,-0.806741 0,-1.055531 0.24879,-0.248791 0.740833,0.15735 1.055531,0 0.166555,-0.08328 1.599197,-3.966192 3.166592,-4.749888 0.314698,-0.15735 0.806738,0.248791 1.055531,0 0.24879,-0.24879 -0.248793,-0.806741 0,-1.055531 0.24879,-0.24879 0.71419,0.08534 1.055529,0 0.955225,0.318101 0.981551,-0.854948 1.583295,-1.055529 0.5197,-0.173233 4.566275,-0.244819 4.749888,0 0.435208,0.580274 0.233177,1.448231 0.527767,2.11106 1.632945,3.674126 4.694084,7.241278 6.860947,10.555306 1.935139,2.99067 3.87028,5.98134 5.805419,8.97201 0.703686,1.759218 1.150392,3.644514 2.11106,5.27765 0.822346,1.39799 2.247728,2.35783 3.166595,3.69436 1.02611,1.49253 1.65939,3.22632 2.63882,4.74989 0.60914,0.94754 1.6073,1.6313 2.11106,2.63882 0.57277,1.14552 0.56295,2.51215 1.05553,3.69436 0.39454,0.94688 1.23274,1.67479 1.5833,2.63883 1.34949,3.7111 0.43107,7.86408 1.05553,11.61083 0.30195,1.81169 1.15788,3.49092 1.5833,5.27765 1.9192,8.06067 0.36776,3.3847 1.58329,11.08307 0.65764,4.16506 1.3383,4.52417 1.5833,8.44425 0.0988,1.58021 -0.17485,3.17628 0,4.74989 0.27816,2.50341 1.35525,4.88024 1.5833,7.38871 0.17592,1.93514 0.35184,3.87028 0.52776,5.80542 0.15927,1.75199 -0.55631,3.60871 0,5.27765 0.15735,0.47205 0.83301,0.61048 1.05553,1.05553 0.15735,0.3147 -0.0853,0.7142 0,1.05553 0.0954,0.38163 0.43236,0.67391 0.52777,1.05553 0.60394,2.41577 0,8.29236 0,11.08307 0,0.17593 -0.15735,-0.44909 0,-0.52776 0.31469,-0.15735 1.05553,-0.35184 1.05553,0 0,4.62031 -0.97512,-0.16083 -1.5833,1.05553 -0.15735,0.3147 0.24879,0.80674 0,1.05553 -0.4128,0.4128 -4.19599,0 -4.74989,0 -2.20939,0 -4.18483,-0.31293 -6.33318,-0.52776 -1.05029,-0.10503 -2.14258,0.256 -3.16659,0 -0.48273,-0.12069 -0.61048,-0.83301 -1.05553,-1.05554 -1.40738,-0.70368 -3.870282,0.70369 -5.277654,0 -0.445053,-0.22252 -0.641519,-0.77952 -1.055531,-1.05553 -0.478716,-0.31914 -1.700522,0.41054 -2.11106,0 -0.430739,-0.43073 0.45272,-5.12633 0,-5.80541 -0.276011,-0.41402 -0.779524,-0.64152 -1.055532,-1.05553 -0.654574,-0.98187 0,-12.15136 0,-13.7219 0,-2.46291 0.305485,-4.94483 0,-7.38872 -1.354201,-10.83361 -1.055531,1.82676 -1.055531,-7.91648 0,-3.34251 0,-6.68502 0,-10.02753 0,-0.70369 0.497583,-1.61348 0,-2.11107 -2.183929,-2.18393 0.08537,3.33734 -2.11106,-1.05553 -0.157351,-0.31469 0.157347,-0.74083 0,-1.05553 -0.561769,-1.12354 -2.136651,-1.59609 -3.166592,-2.11106 -0.351843,-0.17592 -0.777375,-0.24961 -1.055531,-0.52776 -0.124397,-0.1244 0.166894,-0.47214 0,-0.52777 -1.123908,-0.37464 -6.796995,0.15461 -7.916479,0.52777 -0.601744,0.20058 -0.981551,0.85495 -1.583296,1.05553 -0.500681,0.16689 -1.093279,-0.19601 -1.583295,0 -0.461995,0.1848 -0.641517,0.77952 -1.055532,1.05553 -1.007149,0.67143 -0.178088,-1.58005 -1.583296,0.52776 -0.195167,0.29275 0.08534,0.7142 0,1.05553 -0.527184,2.10875 -0.531815,0.008 -1.583295,2.11106 -0.192334,0.38467 -0.328565,12.7362 0,13.7219 0.200583,0.60175 0.805669,1.00029 1.055531,1.5833 0.790131,1.84363 1.189921,3.83855 1.583296,5.80542 0.103502,0.51751 -0.196009,1.09327 0,1.58329 0.184795,0.46199 0.833003,0.61048 1.055531,1.05553 0.157348,0.3147 -0.08534,0.71419 0,1.05553 0.279403,1.11762 1.303891,2.04897 1.583296,3.16659 0.08533,0.34134 -0.15735,0.74084 0,1.05553 0.222525,0.44506 0.833004,0.61048 1.055529,1.05554 0.243583,0.48716 0.243583,3.73495 0,4.22212 -0.04776,0.0955 -3.221445,-0.646 -3.694356,-0.52777 -0.853348,0.21334 -1.265296,1.34165 -2.111063,1.5833 -2.895722,0.82735 -6.646563,-0.95107 -9.499774,0 -0.236025,0.0787 -0.291741,0.44909 -0.527765,0.52776 -0.500681,0.1669 -1.347271,-0.47204 -1.583296,0 -0.15735,0.3147 0.157351,0.74084 0,1.05553 -0.07867,0.15735 -0.40337,0.1244 -0.527764,0 -0.710221,-0.71022 1.460611,-0.0285 0.527764,-1.58329 -1.482653,-2.47109 -2.309153,-1.41846 -3.694355,-2.11106 -0.445053,-0.22253 -0.610481,-0.83301 -1.055532,-1.05553 -0.876599,-0.4383 -3.221447,0 -4.222123,0"
       id="path3" />
    <path
       style="fill:#000000;stroke-width:0.264583"
       d="m 83.386913,87.609036 c 0.91531,-2.416112 2.924588,-0.406763 4.222123,-1.055531 0.667575,-0.333788 0.943285,-1.199291 1.583296,-1.583296 0.769194,-0.461518 1.859986,-0.08271 2.638827,-0.527765 1.527426,-0.872818 2.684288,-2.312241 4.22212,-3.166591 3.488312,-1.937951 7.664651,-2.613374 11.083071,-4.749887 0.63292,-0.395579 1.00048,-1.117042 1.5833,-1.583296 1.12355,-0.898848 2.50768,-0.659974 3.69435,-1.055531 1.06865,-0.356214 1.6313,-1.607299 2.63883,-2.111061 0.3147,-0.15735 0.74083,0.157348 1.05553,0 0.8901,-0.445053 1.22096,-1.666012 2.11106,-2.111062 0.3147,-0.157348 0.76278,0.195167 1.05553,0 0.32731,-0.218205 0.20046,-0.837327 0.52777,-1.055532 0.96695,-0.644633 5.80447,0.410382 6.86095,0.527767 1.87182,0.207981 4.42864,0.211614 6.33318,0 1.06354,-0.118173 2.15141,-0.189373 3.16659,-0.527767 0.16689,-0.05563 -0.17592,-0.527764 0,-0.527764 0.53506,0 1.79363,3.849195 2.11106,5.277654 0.11449,0.515197 -0.16689,1.082612 0,1.583296 0.20058,0.601744 0.70369,1.055529 1.05553,1.583296 0.97551,1.463257 3.61678,5.960581 2.63883,7.916478 -0.37957,0.759138 -0.56815,2.151444 -1.05553,2.638825 -0.1244,0.124396 -0.44909,-0.157348 -0.52777,0 -0.15735,0.314701 0.15735,0.740833 0,1.055531 -0.4468,0.893612 -2.21679,1.873613 -3.16659,2.11106 -0.34134,0.08534 -0.74083,-0.157347 -1.05553,0 -0.44505,0.222528 -0.61048,0.833007 -1.05553,1.055532 -0.87882,0.439412 -3.55259,-0.669536 -4.22212,0 -0.24879,0.24879 0.24879,0.806741 0,1.055531 -0.70556,0.705557 -1.40551,-0.705556 -2.11106,0 -0.24879,0.248791 0,0.703686 0,1.055532 0,1.800341 -0.35074,4.05171 0,5.805416 0.43443,2.172169 1.35436,4.571649 1.58329,6.860949 0.10503,1.05029 -0.3033,2.15558 0,3.16659 0.25276,0.84251 1.18993,1.32432 1.5833,2.11106 0.15735,0.3147 -0.0853,0.71419 0,1.05553 0.97485,3.89941 1.65599,8.04302 2.11106,12.13861 1.41874,12.76861 -0.25487,-3.89516 1.05553,5.27765 0.27367,1.91569 -0.14842,3.87598 0,5.80542 0.0688,0.89438 0.4165,1.74872 0.52777,2.63882 0.33183,2.65468 -0.65173,5.83732 0,8.44425 0.0954,0.38162 0.45061,0.66979 0.52776,1.05553 0.38516,1.92578 0,4.34712 0,6.33318 0,5.27765 0,10.55531 0,15.83296 0,1.26333 0.10567,10.9774 0,11.08307 -0.24879,0.24879 -0.74083,-0.15735 -1.05553,0 -0.15735,0.0787 0.15735,0.44909 0,0.52776 -0.3147,0.15735 -0.70369,0 -1.05553,0 -0.35184,0.35185 -0.61048,0.83301 -1.05553,1.05553 -0.3147,0.15735 -0.71052,-0.069 -1.05553,0 -6.41238,1.28248 -13.45135,0.52777 -20.05508,0.52777"
       id="path4" />
    <path
       style="fill:#000000;stroke-width:0.264583"
       d="m 124.55261,179.44019 c 6.33318,0 12.66636,0 18.99954,0 1.5833,0 3.2043,0.34347 4.74989,0 3.64254,-0.80945 7.00924,-2.72725 10.55531,-3.69435 1.81752,-0.49569 11.4221,0.7165 12.1386,0 0.24879,-0.24879 -0.15735,-0.74084 0,-1.05554 0.70684,-1.41368 2.45975,-1.22514 3.16659,-2.63882 0.15735,-0.3147 -0.15735,-0.74083 0,-1.05553 1.14407,-2.28814 3.87962,-3.70836 5.27765,-5.80542 0.52551,-0.78826 0.53003,-1.85057 1.05553,-2.63883 0.93763,-1.40643 2.82553,-2.24631 3.69436,-3.69435 3.64466,-7.28933 -1.64039,2.72447 2.63883,-3.69436 0.76773,-1.1516 0.81556,-3.07053 1.58329,-4.22212 4.46108,-6.69162 -0.26905,2.94927 4.22213,-4.74989 1.27056,-2.17811 2.12796,-5.69086 3.16659,-7.91648 2.87731,-6.16567 1.19523,-1.33494 3.69435,-6.33318 4.28461,-8.56922 -1.4403,2.30517 1.5833,-4.74989 0.24986,-0.58301 0.85495,-0.98155 1.05553,-1.5833 0.59521,-1.78562 0,-9.737 0,-12.1386 0,-4.86278 0.66864,-12.20799 0,-16.888484 -0.20516,-1.436108 -0.77103,-2.799606 -1.05553,-4.222123 -0.24396,-1.219798 -0.18602,-2.498264 -0.52777,-3.694358 -0.36806,-1.28823 -1.23808,-2.399813 -1.58329,-3.694356 -0.36545,-1.370436 -0.16232,-2.851685 -0.52777,-4.222123 -0.49589,-1.859603 -2.35141,-5.067565 -3.16659,-6.860947 -4.26397,-9.380734 1.85278,3.885199 -1.58329,-5.277655 -0.22272,-0.593907 -0.85495,-0.981548 -1.05553,-1.583295 -0.3781,-1.134272 0.0194,-3.127838 -0.52777,-4.222121 -0.22253,-0.44505 -0.83301,-0.610481 -1.05553,-1.055531 -0.39447,-0.788927 -0.2432,-2.312892 -0.52777,-3.166592 -0.23602,-0.708072 -1.16928,-0.962276 -1.58329,-1.583295 -0.0976,-0.146376 0.12439,-0.403371 0,-0.527765 -0.27816,-0.278159 -0.83733,-0.200459 -1.05553,-0.527767 0,-2.814748 0.35184,0.351843 -1.05553,-1.055528 -0.24879,-0.248793 0.24879,-0.806741 0,-1.055532 -0.24879,-0.24879 -0.74083,0.157348 -1.05553,0 -0.44506,-0.222525 -0.61048,-0.833006 -1.05553,-1.055531 -0.3147,-0.157348 -0.74084,0.15735 -1.05553,0 -0.44506,-0.222525 -0.58349,-0.898181 -1.05554,-1.055529 -0.13089,-0.04364 -3.74805,-0.237035 -4.22212,0 -0.8901,0.44505 -1.31493,1.513962 -2.11106,2.11106 -3.2199,2.414926 -2.87594,1.223809 -4.74989,4.222123 -1.50432,2.406923 -0.68611,3.747236 -1.05553,6.333183 -0.78377,5.486381 -0.52776,-2.035937 -0.52776,5.277652 0,4.621794 -0.48181,9.672529 0,14.249661 0.36868,3.502491 1.78833,7.005334 2.11106,10.555306 0.0956,1.051198 -0.25601,2.142578 0,3.166592 0.12068,0.482727 0.87073,0.593537 1.05553,1.055531 0.19601,0.490019 -0.19601,1.093277 0,1.583294 0.1848,0.462 0.89818,0.58348 1.05553,1.05553 0.22253,0.66758 -0.0995,1.41445 0,2.11106 0.0787,0.55073 0.46633,1.03039 0.52776,1.5833 0.31887,2.8698 0,6.08297 0,8.97201 0,5.32198 1.05397,14.88643 -1.05552,19.52732 -0.52495,1.15488 -1.5036,2.0529 -2.11107,3.16659 -0.71975,1.31954 -0.62105,3.06742 -1.58329,4.22212 -0.56312,0.67573 -1.48909,0.96132 -2.11106,1.58329 -0.79652,0.79652 -1.38993,1.77347 -2.11107,2.63883 -0.5281,0.63372 -1.41019,3.57896 -1.58329,3.69436 -0.29275,0.19517 -0.77406,-0.21111 -1.05553,0 -0.69244,1.03866 -1.10837,1.8868 -2.11106,2.63882 -0.6294,0.47205 -1.55475,0.49922 -2.11106,1.05553 -0.27816,0.27816 -0.17592,0.87961 -0.52777,1.05554 -0.47205,0.23602 -1.11125,-0.23603 -1.58329,0 -0.35185,0.17592 -0.20046,0.83732 -0.52777,1.05552 -1.93333,1.28889 -2.38328,-2.38327 -3.16659,-3.16659 -1.64194,-1.64193 -1.70058,-0.2932 -2.63883,-2.63882 -0.71195,-1.77988 -0.37384,-4.51536 -1.05553,-6.33319 -0.17471,-0.4659 -0.833,-0.61048 -1.05553,-1.05553 -0.49351,-0.98702 0,-6.02197 0,-7.38871 0,-1.29566 0.41367,-6.76822 0,-7.38871 -0.27601,-0.41402 -0.833,-0.61048 -1.05553,-1.05554 -0.15735,-0.31469 0.13067,-0.72885 0,-1.05552 -2.46925,-3.70388 -0.3796,0.0649 -1.05553,-2.63883 -0.34678,-1.38712 -1.54173,-2.02794 -2.11106,-3.16659 -0.15735,-0.3147 0.24879,-0.80674 0,-1.05553 -2.18393,-2.18393 0.0854,3.33733 -2.11106,-1.05553 -0.15735,-0.3147 0.24879,-0.80674 0,-1.05553 -0.24879,-0.2488 -0.80674,0.24879 -1.05553,0 -2.18393,-2.18394 3.33733,0.0854 -1.05553,-2.11107 -0.62705,-0.31352 -4.65061,-0.31352 -5.27766,0 -0.44505,0.22253 -0.61047,0.83301 -1.05552,1.05553 -1.58384,0.79192 -4.22213,-1.39188 -4.22213,1.5833 0,1.12089 0.008,1.59961 0.52777,2.63883"
       id="path5" />
  </g>
</svg>
